<?xml version="1.0" encoding="UTF-8" standalone="no"?>
<!-- Uploaded to: SVG Repo, www.svgrepo.com, Generator: SVG Repo Mixer Tools -->

<svg
   fill="#000000"
   version="1.1"
   id="Capa_1"
   width="400"
   height="803.84003"
   viewBox="0 0 103.163 207.31637"
   xml:space="preserve"
   sodipodi:docname="cycle.svg"
   inkscape:version="1.3.2 (091e20e, 2023-11-25, custom)"
   inkscape:export-filename="body-silhouette-white.png"
   inkscape:export-xdpi="141.00937"
   inkscape:export-ydpi="141.00937"
   xmlns:inkscape="http://www.inkscape.org/namespaces/inkscape"
   xmlns:sodipodi="http://sodipodi.sourceforge.net/DTD/sodipodi-0.dtd"
   xmlns="http://www.w3.org/2000/svg"
   xmlns:svg="http://www.w3.org/2000/svg"><defs
   id="defs2" /><sodipodi:namedview
   id="namedview2"
   pagecolor="#ffffff"
   bordercolor="#000000"
   borderopacity="0.25"
   inkscape:showpageshadow="2"
   inkscape:pageopacity="0.0"
   inkscape:pagecheckerboard="0"
   inkscape:deskcolor="#d1d1d1"
   inkscape:zoom="1.3912326"
   inkscape:cx="209.16704"
   inkscape:cy="193.71311"
   inkscape:window-width="1920"
   inkscape:window-height="991"
   inkscape:window-x="-9"
   inkscape:window-y="-9"
   inkscape:window-maximized="1"
   inkscape:current-layer="Capa_1" />

<g
   id="g2"
   transform="translate(7.6850153,10.3163)"><path
     style="color:#000000;fill:#ffffff;-inkscape-stroke:none"
     d="M 43.896484,-6.0351562 C 31.252646,-6.0351562 21,4.2174901 21,16.861328 c 0,12.643838 10.252646,22.896484 22.896484,22.896484 12.643838,0 22.896485,-10.252646 22.896485,-22.896484 0,-12.6438379 -10.252647,-22.8964842 -22.896485,-22.8964842 z m 0,0.2578125 c 12.504455,0 22.638672,10.1342174 22.638672,22.6386717 C 66.535156,29.365783 56.400939,39.5 43.896484,39.5 31.39203,39.5 21.257812,29.365783 21.257812,16.861328 c 0,-12.5044543 10.134218,-22.6386717 22.638672,-22.6386717 z"
     id="path1" /><path
     style="color:#000000;fill:#ffffff;-inkscape-stroke:none"
     d="m 19.052734,37.341797 c -12.6438377,0 -22.896484,10.252646 -22.896484,22.896484 0,12.643838 10.2526463,22.896485 22.896484,22.896485 12.643838,0 22.896485,-10.252647 22.896485,-22.896485 0,-12.643838 -10.252647,-22.896484 -22.896485,-22.896484 z m 0,0.259765 c 12.504455,0 22.638672,10.132265 22.638672,22.636719 0,12.504455 -10.134217,22.638672 -22.638672,22.638672 -12.504454,0 -22.6386715,-10.134217 -22.6386715,-22.638672 0,-12.504454 10.1342175,-22.636719 22.6386715,-22.636719 z"
     id="path1-8" /><path
     style="color:#000000;fill:#ffffff;-inkscape-stroke:none"
     d="m 68.740234,37.341797 c -12.643838,0 -22.896484,10.252646 -22.896484,22.896484 0,12.643838 10.252646,22.896485 22.896484,22.896485 12.643838,0 22.896485,-10.252647 22.896485,-22.896485 0,-12.643838 -10.252647,-22.896484 -22.896485,-22.896484 z m 0,0.259765 c 12.504455,0 22.636719,10.132265 22.636719,22.636719 0,12.504455 -10.132264,22.638672 -22.636719,22.638672 -12.504454,0 -22.638672,-10.134217 -22.638672,-22.638672 0,-12.504454 10.134218,-22.636719 22.638672,-22.636719 z"
     id="path1-8-5" /><text
     xml:space="preserve"
     style="font-size:4.81427px;line-height:1;font-family:'Times New Roman';-inkscape-font-specification:'Times New Roman, ';letter-spacing:0px;fill:#ffffff;stroke:#ff0000;stroke-width:0.257908"
     x="34.693184"
     y="6.6737022"
     id="text1"><tspan
       sodipodi:role="line"
       id="tspan1"
       style="font-style:normal;font-variant:normal;font-weight:normal;font-stretch:normal;font-size:4.81427px;font-family:Arial;-inkscape-font-specification:Arial;fill:#ffffff;stroke:none;stroke-width:0.257908"
       x="34.693184"
       y="6.6737022">Feelings</tspan></text><text
     xml:space="preserve"
     style="font-size:4.81427px;line-height:1;font-family:'Times New Roman';-inkscape-font-specification:'Times New Roman, ';letter-spacing:0px;fill:#ffffff;stroke:#ff0000;stroke-width:0.257908"
     x="11.864676"
     y="77.25737"
     id="text1-5"><tspan
       sodipodi:role="line"
       id="tspan1-4"
       style="font-style:normal;font-variant:normal;font-weight:normal;font-stretch:normal;font-size:4.81427px;font-family:Arial;-inkscape-font-specification:Arial;fill:#ffffff;stroke:none;stroke-width:0.257908"
       x="11.864676"
       y="77.25737">Things</tspan></text><text
     xml:space="preserve"
     style="font-size:4.81427px;line-height:1;font-family:'Times New Roman';-inkscape-font-specification:'Times New Roman, ';letter-spacing:0px;fill:#ffffff;stroke:#ff0000;stroke-width:0.257908"
     x="60.94199"
     y="78.214111"
     id="text1-6"><tspan
       sodipodi:role="line"
       id="tspan1-9"
       style="font-style:normal;font-variant:normal;font-weight:normal;font-stretch:normal;font-size:4.81427px;font-family:Arial;-inkscape-font-specification:Arial;fill:#ffffff;stroke:none;stroke-width:0.257908"
       x="60.94199"
       y="78.214111">Actions</tspan></text></g></svg>
