<?xml version="1.0" encoding="UTF-8" standalone="no"?>
<!-- Created with Inkscape (http://www.inkscape.org/) -->

<svg
   width="210mm"
   height="297mm"
   viewBox="0 0 210 297"
   version="1.1"
   id="svg1"
   inkscape:version="1.3.2 (091e20e, 2023-11-25, custom)"
   sodipodi:docname="sun-and-moon.svg"
   xmlns:inkscape="http://www.inkscape.org/namespaces/inkscape"
   xmlns:sodipodi="http://sodipodi.sourceforge.net/DTD/sodipodi-0.dtd"
   xmlns="http://www.w3.org/2000/svg"
   xmlns:svg="http://www.w3.org/2000/svg">
  <sodipodi:namedview
     id="namedview1"
     pagecolor="#ffffff"
     bordercolor="#000000"
     borderopacity="0.25"
     inkscape:showpageshadow="2"
     inkscape:pageopacity="0.0"
     inkscape:pagecheckerboard="0"
     inkscape:deskcolor="#d1d1d1"
     inkscape:document-units="mm"
     inkscape:zoom="0.70110129"
     inkscape:cx="211.09646"
     inkscape:cy="291.68396"
     inkscape:window-width="1920"
     inkscape:window-height="1001"
     inkscape:window-x="-9"
     inkscape:window-y="-9"
     inkscape:window-maximized="1"
     inkscape:current-layer="layer1" />
  <defs
     id="defs1" />
  <g
     inkscape:label="Layer 1"
     inkscape:groupmode="layer"
     id="layer1">
    <rect
       style="fill:#cccccc;stroke:none;stroke-width:0.499999"
       id="rect1"
       width="113.96951"
       height="113.96951"
       x="49.059719"
       y="71.325287"
       inkscape:export-filename="hills.png"
       inkscape:export-xdpi="22.189314"
       inkscape:export-ydpi="22.189314" />
    <rect
       style="fill:#cccccc;stroke:none;stroke-width:0.499999"
       id="rect1-1"
       width="113.96951"
       height="113.96951"
       x="49.059719"
       y="71.325287"
       inkscape:export-filename="hills.png"
       inkscape:export-xdpi="22.189314"
       inkscape:export-ydpi="22.189314" />
    <circle
       style="fill:#ffdd55;stroke:none;stroke-width:0.499999"
       id="path1"
       cx="106.04448"
       cy="88.659958"
       r="11.698856" />
    <path
       id="path1-1"
       style="fill:#f9f9f9;stroke-width:0.499999"
       d="M 106.04469 156.33619 A 11.698856 11.698856 0 0 0 94.345662 168.0347 A 11.698856 11.698856 0 0 0 106.04469 179.73373 A 11.698856 11.698856 0 0 0 108.69052 179.40145 A 11.698856 11.698856 0 0 1 99.637329 168.0347 A 11.698856 11.698856 0 0 1 108.74943 156.65555 A 11.698856 11.698856 0 0 0 106.04469 156.33619 z "
       inkscape:export-filename="sun-and-moon.png"
       inkscape:export-xdpi="22.189314"
       inkscape:export-ydpi="22.189314" />
    <path
       style="fill:#008000;stroke:#165016;stroke-width:2;stroke-dasharray:none"
       d="m 103.71586,128.66664 c 0,0 12.77608,-12.45362 25.55214,-12.45362 12.77607,0 33.21779,13.58577 33.21779,13.58577"
       id="path3" />
    <path
       style="fill:#008000;stroke:#005522;stroke-width:2;stroke-dasharray:none"
       d="m 49.81078,133.79252 c 0,0 20.913031,-12.60435 34.748896,-14.46156 13.83587,-1.85721 43.053364,15.90602 43.053364,15.90602"
       id="path2" />
  </g>
</svg>
